<?xml version="1.0" encoding="iso-8859-1"?>
<!-- Generator: Adobe Illustrator 21.0.0, SVG Export Plug-In . SVG Version: 6.00 Build 0)  -->
<svg version="1.1" id="Layer_1" xmlns="http://www.w3.org/2000/svg" xmlns:xlink="http://www.w3.org/1999/xlink" x="0px" y="0px"
	 viewBox="0 0 100.353 100.353" style="enable-background:new 0 0 100.353 100.353;" xml:space="preserve">
<g>
	<path style="fill:#231F20;" d="M49.996,6.539c-17.25,0-31.285,13.564-31.285,30.236c0,5.562,1.608,11.023,4.653,15.815
		c0.031,0.077,0.069,0.151,0.114,0.223L48.22,92.75c0.271,0.438,0.747,0.705,1.261,0.71c0.004,0,0.009,0,0.014,0
		c0.509,0,0.984-0.258,1.261-0.687l25.761-39.937c0.057-0.088,0.103-0.181,0.138-0.276c3.035-4.778,4.637-10.229,4.637-15.785
		C81.291,20.103,67.251,6.539,49.996,6.539z M73.959,51.205c-0.058,0.089-0.104,0.182-0.14,0.278L49.52,89.153L26.181,51.479
		c-0.037-0.095-0.083-0.187-0.14-0.273c-2.833-4.364-4.33-9.354-4.33-14.431c0-15.018,12.688-27.236,28.285-27.236
		c15.602,0,28.295,12.218,28.295,27.236C78.291,41.858,76.793,46.848,73.959,51.205z"/>
	<path style="fill:#231F20;" d="M62.615,22.636L28.992,36.522c-0.514,0.212-0.875,0.763-0.927,1.316
		c-0.039,0.403,0.087,0.804,0.35,1.113c0.262,0.309,0.637,0.499,1.041,0.526l19.157,1.313l3.965,18.785
		c0.083,0.393,0.356,0.729,0.695,0.945c0.24,0.153,0.534,0.23,0.825,0.23c0.12,0,0.239-0.013,0.354-0.039
		c0.547-0.125,0.979-0.545,1.119-1.088l9.07-35.226c0.142-0.55-0.04-1.133-0.469-1.506C63.743,22.518,63.141,22.419,62.615,22.636z
		 M54.22,52.833l-2.907-13.771c-0.139-0.656-0.696-1.141-1.365-1.187l-14.042-0.963l25.08-10.357L54.22,52.833z"/>
</g>
</svg>
