<?xml version="1.0" encoding="iso-8859-1"?>
<!-- Generator: Adobe Illustrator 21.1.0, SVG Export Plug-In . SVG Version: 6.00 Build 0)  -->
<svg version="1.1" id="Layer_1" xmlns="http://www.w3.org/2000/svg" xmlns:xlink="http://www.w3.org/1999/xlink" x="0px" y="0px"
	 viewBox="0 0 100.353 100.353" style="enable-background:new 0 0 100.353 100.353;" xml:space="preserve">
<g>
	<path d="M50.465,57.735c-19.501,0-35.367,15.867-35.367,35.371c0,0.828,0.671,1.5,1.5,1.5h67.734c0.828,0,1.5-0.672,1.5-1.5
		C85.832,73.602,69.967,57.735,50.465,57.735z M18.132,91.606c0.786-17.156,14.988-30.871,32.333-30.871
		s31.548,13.715,32.333,30.871H18.132z"/>
	<path d="M49.876,13.379c-11.228,0-20.363,9.135-20.363,20.363s9.135,20.363,20.363,20.363c11.229,0,20.363-9.135,20.363-20.363
		S61.104,13.379,49.876,13.379z M49.876,51.105c-9.574,0-17.363-7.789-17.363-17.363s7.789-17.363,17.363-17.363
		c9.574,0,17.363,7.789,17.363,17.363S59.45,51.105,49.876,51.105z"/>
	<path d="M25.138,44.889c0.829,0,1.5-0.671,1.5-1.5V23.977c0-0.096-0.011-0.189-0.028-0.28c4.019-9.319,13.054-15.304,23.267-15.304
		c10.396,0,19.582,6.202,23.486,15.816v19.067c-1.258,3.098-3.085,5.884-5.45,8.28c-0.582,0.59-0.576,1.539,0.014,2.121
		c0.292,0.289,0.673,0.433,1.054,0.433c0.387,0,0.774-0.149,1.067-0.446c2.52-2.553,4.495-5.504,5.893-8.774h1.054
		c6.179,0,11.206-5.027,11.206-11.206s-5.027-11.206-11.206-11.206h-1.118c-4.503-10.403-14.596-17.084-26-17.084
		c-11.41,0-21.504,6.68-26.005,17.084h-0.866c-6.179,0-11.206,5.027-11.206,11.206s5.027,11.206,11.206,11.206H25.138z
		 M85.201,33.683c0,4.525-3.682,8.206-8.206,8.206h-0.632V25.477h0.632C81.52,25.477,85.201,29.158,85.201,33.683z M14.8,33.683
		c0-4.525,3.681-8.206,8.206-8.206h0.632v16.412h-0.632C18.481,41.889,14.8,38.208,14.8,33.683z"/>
</g>
</svg>
